<svg id="Layer_1" data-name="Layer 1" xmlns="http://www.w3.org/2000/svg" viewBox="0 0 87.91 58.61"><path d="M395.18,416.63V414c5.47-.58,5.83-1.08,5.83-7.56l-.07-28.09c-5.18,12.39-10.87,26.07-16.06,38.31h-2.37c-4.68-11.74-9.8-25.13-15-37.73-.94,22.61-.94,27.07-.94,29.67.08,3.89,1.52,4.89,6.92,5.4v2.66H355.65V414c4.1-.36,6-1.16,6.55-5.48.29-2.16.58-6.26,2.23-30,.22-3.46-.28-5.4-6.48-6v-2.66h15.56l13.89,31.75,14-31.75h15.2v2.66c-5.77.58-6.41,1.15-6.27,6.91l.58,27c.07,6.48.36,6.77,6.19,7.56v2.66Z" transform="translate(-355.65 -369.83)"/><path d="M443.56,372.49c-5,.58-5.69,1-5.69,7.06v23.76c0,8.35-.79,15.34-7.63,20.74a25.1,25.1,0,0,1-8.93,4.39l-1.15-2.73c4-1.81,6.12-4.33,6.91-8.86a88.16,88.16,0,0,0,.8-13.83V379.55c0-6.05-.72-6.55-6.27-7.06v-2.66h22Z" transform="translate(-355.65 -369.83)"/></svg>